<svg id="mol16" xmlns="http://www.w3.org/2000/svg" version="1.1" width="213px" height="210px" viewBox="43 -5 213 210">
  <style> text {font-family: sans-serif;} #mol16 { pointer-events:none; } #mol16 .event  { pointer-events:all; } line { stroke-linecap:round; } polygon { stroke-linejoin:round; } </style>
  <text x="71.35" y="35.4" stroke="none" font-size="13" fill="rgb(48,80,248)">N</text>
  <text x="81.74" y="30.06" stroke="none" font-size="9" fill="rgb(48,80,248)">+</text>
  <text x="51.74" y="46.51" stroke="none" font-size="13" fill="rgb(255,13,13)">O</text>
  <text x="70.99" y="13.17" stroke="none" font-size="13" fill="rgb(255,13,13)">O</text>
  <text x="82.1" y="7.84" stroke="none" font-size="9" fill="rgb(255,13,13)">-</text>
  <text x="167.24" y="68.74" stroke="none" font-size="13" fill="rgb(255,13,13)">O</text>
  <text x="148.35" y="102.08" stroke="none" font-size="13" fill="rgb(48,80,248)">N</text>
  <text x="138.97" y="102.08" stroke="none" font-size="13" fill="rgb(48,80,248)">H</text>
  <line x1="95.29" y1="42.18" x2="95.29" y2="64.41" stroke="rgb(0,0,0)" stroke-width="1.33" />
  <line x1="98.63" y1="44.55" x2="98.63" y2="62.04" stroke="rgb(0,0,0)" stroke-width="1.33" />
  <line x1="114.54" y1="75.52" x2="133.79" y2="64.41" stroke="rgb(0,0,0)" stroke-width="1.33" />
  <line x1="114.93" y1="71.45" x2="130.07" y2="62.71" stroke="rgb(0,0,0)" stroke-width="1.33" />
  <line x1="133.79" y1="42.18" x2="114.54" y2="31.06" stroke="rgb(0,0,0)" stroke-width="1.33" />
  <line x1="130.07" y1="43.88" x2="114.93" y2="35.14" stroke="rgb(0,0,0)" stroke-width="1.33" />
  <line x1="69.52" y1="32.91" x2="62.02" y2="37.24" stroke="rgb(0,0,0)" stroke-width="1.33" />
  <line x1="71.18" y1="35.79" x2="63.68" y2="40.13" stroke="rgb(0,0,0)" stroke-width="1.33" />
  <line x1="153.04" y1="77.45" x2="167.07" y2="69.35" stroke="rgb(0,0,0)" stroke-width="1.33" />
  <line x1="151.38" y1="74.56" x2="165.4" y2="66.46" stroke="rgb(0,0,0)" stroke-width="1.33" />
  <line x1="172.29" y1="108.86" x2="172.29" y2="131.09" stroke="rgb(0,0,0)" stroke-width="1.33" />
  <line x1="175.63" y1="111.24" x2="175.63" y2="128.72" stroke="rgb(0,0,0)" stroke-width="1.33" />
  <line x1="191.54" y1="142.21" x2="210.8" y2="131.09" stroke="rgb(0,0,0)" stroke-width="1.33" />
  <line x1="191.93" y1="138.13" x2="207.07" y2="129.39" stroke="rgb(0,0,0)" stroke-width="1.33" />
  <line x1="210.8" y1="108.86" x2="191.54" y2="97.75" stroke="rgb(0,0,0)" stroke-width="1.33" />
  <line x1="207.07" y1="110.57" x2="191.93" y2="101.82" stroke="rgb(0,0,0)" stroke-width="1.33" />
  <line x1="95.29" y1="64.41" x2="114.54" y2="75.52" stroke="rgb(0,0,0)" stroke-width="1.33" />
  <line x1="133.79" y1="64.41" x2="133.79" y2="42.18" stroke="rgb(0,0,0)" stroke-width="1.33" />
  <line x1="114.54" y1="31.06" x2="95.29" y2="42.18" stroke="rgb(0,0,0)" stroke-width="1.33" />
  <line x1="95.29" y1="42.18" x2="81.74" y2="34.35" stroke="rgb(0,0,0)" stroke-width="1.33" />
  <line x1="76.04" y1="25.06" x2="76.04" y2="14.84" stroke="rgb(0,0,0)" stroke-width="1.33" />
  <line x1="133.79" y1="64.41" x2="153.04" y2="75.52" stroke="rgb(0,0,0)" stroke-width="1.33" />
  <line x1="153.04" y1="75.52" x2="153.04" y2="91.75" stroke="rgb(0,0,0)" stroke-width="1.33" />
  <line x1="158.74" y1="101.04" x2="172.29" y2="108.86" stroke="rgb(0,0,0)" stroke-width="1.33" />
  <line x1="172.29" y1="131.09" x2="191.54" y2="142.21" stroke="rgb(0,0,0)" stroke-width="1.33" />
  <line x1="210.8" y1="131.09" x2="210.8" y2="108.86" stroke="rgb(0,0,0)" stroke-width="1.33" />
  <line x1="191.54" y1="97.75" x2="172.29" y2="108.86" stroke="rgb(0,0,0)" stroke-width="1.33" />
  <line x1="210.8" y1="131.09" x2="230.05" y2="142.21" stroke="rgb(0,0,0)" stroke-width="1.33" />
  <line x1="230.05" y1="142.21" x2="230.05" y2="164.43" stroke="rgb(0,0,0)" stroke-width="1.33" />
  <line x1="230.05" y1="164.43" x2="249.3" y2="175.55" stroke="rgb(0,0,0)" stroke-width="1.33" />
  <line x1="249.3" y1="175.55" x2="249.3" y2="197.78" stroke="rgb(0,0,0)" stroke-width="1.33" />
  <line id="mol16:Bond:0" class="event" x1="95.29" y1="42.18" x2="95.29" y2="64.41" stroke-width="8" opacity="0" />
  <line id="mol16:Bond:2" class="event" x1="114.54" y1="75.52" x2="133.79" y2="64.41" stroke-width="8" opacity="0" />
  <line id="mol16:Bond:4" class="event" x1="133.79" y1="42.18" x2="114.54" y2="31.06" stroke-width="8" opacity="0" />
  <line id="mol16:Bond:7" class="event" x1="76.04" y1="31.06" x2="56.79" y2="42.18" stroke-width="8" opacity="0" />
  <line id="mol16:Bond:10" class="event" x1="153.04" y1="75.52" x2="172.29" y2="64.41" stroke-width="8" opacity="0" />
  <line id="mol16:Bond:13" class="event" x1="172.29" y1="108.86" x2="172.29" y2="131.09" stroke-width="8" opacity="0" />
  <line id="mol16:Bond:15" class="event" x1="191.54" y1="142.21" x2="210.8" y2="131.09" stroke-width="8" opacity="0" />
  <line id="mol16:Bond:17" class="event" x1="210.8" y1="108.86" x2="191.54" y2="97.75" stroke-width="8" opacity="0" />
  <line id="mol16:Bond:1" class="event" x1="95.29" y1="64.41" x2="114.54" y2="75.52" stroke-width="8" opacity="0" />
  <line id="mol16:Bond:3" class="event" x1="133.79" y1="64.41" x2="133.79" y2="42.18" stroke-width="8" opacity="0" />
  <line id="mol16:Bond:5" class="event" x1="114.54" y1="31.06" x2="95.29" y2="42.18" stroke-width="8" opacity="0" />
  <line id="mol16:Bond:6" class="event" x1="95.29" y1="42.18" x2="76.04" y2="31.06" stroke-width="8" opacity="0" />
  <line id="mol16:Bond:8" class="event" x1="76.04" y1="31.06" x2="76.04" y2="8.84" stroke-width="8" opacity="0" />
  <line id="mol16:Bond:9" class="event" x1="133.79" y1="64.41" x2="153.04" y2="75.52" stroke-width="8" opacity="0" />
  <line id="mol16:Bond:11" class="event" x1="153.04" y1="75.52" x2="153.04" y2="97.75" stroke-width="8" opacity="0" />
  <line id="mol16:Bond:12" class="event" x1="153.04" y1="97.75" x2="172.29" y2="108.86" stroke-width="8" opacity="0" />
  <line id="mol16:Bond:14" class="event" x1="172.29" y1="131.09" x2="191.54" y2="142.21" stroke-width="8" opacity="0" />
  <line id="mol16:Bond:16" class="event" x1="210.8" y1="131.09" x2="210.8" y2="108.86" stroke-width="8" opacity="0" />
  <line id="mol16:Bond:18" class="event" x1="191.54" y1="97.75" x2="172.29" y2="108.86" stroke-width="8" opacity="0" />
  <line id="mol16:Bond:19" class="event" x1="210.8" y1="131.09" x2="230.05" y2="142.21" stroke-width="8" opacity="0" />
  <line id="mol16:Bond:20" class="event" x1="230.05" y1="142.21" x2="230.05" y2="164.43" stroke-width="8" opacity="0" />
  <line id="mol16:Bond:21" class="event" x1="230.05" y1="164.43" x2="249.3" y2="175.55" stroke-width="8" opacity="0" />
  <line id="mol16:Bond:22" class="event" x1="249.3" y1="175.55" x2="249.3" y2="197.78" stroke-width="8" opacity="0" />
  <circle id="mol16:Atom:0" class="event" cx="95.29" cy="42.18" r="8" opacity="0" />
  <circle id="mol16:Atom:1" class="event" cx="95.29" cy="64.41" r="8" opacity="0" />
  <circle id="mol16:Atom:2" class="event" cx="114.54" cy="75.52" r="8" opacity="0" />
  <circle id="mol16:Atom:3" class="event" cx="133.79" cy="64.41" r="8" opacity="0" />
  <circle id="mol16:Atom:4" class="event" cx="133.79" cy="42.18" r="8" opacity="0" />
  <circle id="mol16:Atom:5" class="event" cx="114.54" cy="31.06" r="8" opacity="0" />
  <circle id="mol16:Atom:6" class="event" cx="76.04" cy="31.06" r="8" opacity="0" />
  <circle id="mol16:Atom:7" class="event" cx="56.79" cy="42.18" r="8" opacity="0" />
  <circle id="mol16:Atom:8" class="event" cx="76.04" cy="8.84" r="8" opacity="0" />
  <circle id="mol16:Atom:9" class="event" cx="153.04" cy="75.52" r="8" opacity="0" />
  <circle id="mol16:Atom:10" class="event" cx="172.29" cy="64.41" r="8" opacity="0" />
  <circle id="mol16:Atom:11" class="event" cx="153.04" cy="97.75" r="8" opacity="0" />
  <circle id="mol16:Atom:12" class="event" cx="172.29" cy="108.86" r="8" opacity="0" />
  <circle id="mol16:Atom:13" class="event" cx="172.29" cy="131.09" r="8" opacity="0" />
  <circle id="mol16:Atom:14" class="event" cx="191.54" cy="142.21" r="8" opacity="0" />
  <circle id="mol16:Atom:15" class="event" cx="210.8" cy="131.09" r="8" opacity="0" />
  <circle id="mol16:Atom:16" class="event" cx="210.8" cy="108.86" r="8" opacity="0" />
  <circle id="mol16:Atom:17" class="event" cx="191.54" cy="97.75" r="8" opacity="0" />
  <circle id="mol16:Atom:18" class="event" cx="230.05" cy="142.21" r="8" opacity="0" />
  <circle id="mol16:Atom:19" class="event" cx="230.05" cy="164.43" r="8" opacity="0" />
  <circle id="mol16:Atom:20" class="event" cx="249.3" cy="175.55" r="8" opacity="0" />
  <circle id="mol16:Atom:21" class="event" cx="249.3" cy="197.78" r="8" opacity="0" />
</svg>