<svg id="mol23" xmlns="http://www.w3.org/2000/svg" version="1.1" width="223px" height="99px" viewBox="39 51 223 99">
  <style> text {font-family: sans-serif;} #mol23 { pointer-events:none; } #mol23 .event  { pointer-events:all; } line { stroke-linecap:round; } polygon { stroke-linejoin:round; } </style>
  <text x="123.77" y="110.67" stroke="none" font-size="14" fill="rgb(255,13,13)">O</text>
  <text x="165.34" y="134.67" stroke="none" font-size="14" fill="rgb(255,13,13)">O</text>
  <line x1="150" y1="70" x2="150" y2="94" stroke="rgb(0,0,0)" stroke-width="1.44" />
  <line x1="153.6" y1="72.56" x2="153.6" y2="91.44" stroke="rgb(0,0,0)" stroke-width="1.44" />
  <line x1="170.78" y1="106" x2="191.57" y2="94" stroke="rgb(0,0,0)" stroke-width="1.44" />
  <line x1="171.2" y1="101.6" x2="187.55" y2="92.16" stroke="rgb(0,0,0)" stroke-width="1.44" />
  <line x1="191.57" y1="70" x2="170.78" y2="58" stroke="rgb(0,0,0)" stroke-width="1.44" />
  <line x1="187.55" y1="71.84" x2="171.2" y2="62.4" stroke="rgb(0,0,0)" stroke-width="1.44" />
  <line x1="87.65" y1="106" x2="66.86" y2="94" stroke="rgb(0,0,0)" stroke-width="1.44" />
  <line x1="83.63" y1="107.84" x2="67.28" y2="98.4" stroke="rgb(0,0,0)" stroke-width="1.44" />
  <line x1="46.08" y1="106" x2="46.08" y2="130" stroke="rgb(0,0,0)" stroke-width="1.44" />
  <line x1="49.68" y1="108.56" x2="49.68" y2="127.44" stroke="rgb(0,0,0)" stroke-width="1.44" />
  <line x1="66.86" y1="142" x2="87.65" y2="130" stroke="rgb(0,0,0)" stroke-width="1.44" />
  <line x1="67.28" y1="137.6" x2="83.63" y2="128.16" stroke="rgb(0,0,0)" stroke-width="1.44" />
  <line x1="150" y1="94" x2="170.78" y2="106" stroke="rgb(0,0,0)" stroke-width="1.44" />
  <line x1="191.57" y1="94" x2="191.57" y2="70" stroke="rgb(0,0,0)" stroke-width="1.44" />
  <line x1="170.78" y1="58" x2="150" y2="70" stroke="rgb(0,0,0)" stroke-width="1.44" />
  <line x1="191.57" y1="70" x2="212.35" y2="58" stroke="rgb(0,0,0)" stroke-width="1.44" />
  <line x1="212.35" y1="58" x2="233.14" y2="70" stroke="rgb(0,0,0)" stroke-width="1.44" />
  <line x1="233.14" y1="70" x2="253.92" y2="58" stroke="rgb(0,0,0)" stroke-width="1.44" />
  <line x1="150" y1="94" x2="135.66" y2="102.28" stroke="rgb(0,0,0)" stroke-width="1.44" />
  <line x1="122.77" y1="102.28" x2="108.43" y2="94" stroke="rgb(0,0,0)" stroke-width="1.44" />
  <line x1="108.43" y1="94" x2="87.65" y2="106" stroke="rgb(0,0,0)" stroke-width="1.44" />
  <line x1="66.86" y1="94" x2="46.08" y2="106" stroke="rgb(0,0,0)" stroke-width="1.44" />
  <line x1="46.08" y1="130" x2="66.86" y2="142" stroke="rgb(0,0,0)" stroke-width="1.44" />
  <line x1="87.65" y1="130" x2="87.65" y2="106" stroke="rgb(0,0,0)" stroke-width="1.44" />
  <line x1="170.78" y1="106" x2="170.78" y2="123" stroke="rgb(0,0,0)" stroke-width="1.44" />
  <line x1="164.34" y1="133.72" x2="150" y2="142" stroke="rgb(0,0,0)" stroke-width="1.44" />
  <line id="mol23:Bond:0" class="event" x1="150" y1="70" x2="150" y2="94" stroke-width="8" opacity="0" />
  <line id="mol23:Bond:2" class="event" x1="170.78" y1="106" x2="191.57" y2="94" stroke-width="8" opacity="0" />
  <line id="mol23:Bond:4" class="event" x1="191.57" y1="70" x2="170.78" y2="58" stroke-width="8" opacity="0" />
  <line id="mol23:Bond:12" class="event" x1="87.65" y1="106" x2="66.86" y2="94" stroke-width="8" opacity="0" />
  <line id="mol23:Bond:14" class="event" x1="46.08" y1="106" x2="46.08" y2="130" stroke-width="8" opacity="0" />
  <line id="mol23:Bond:16" class="event" x1="66.86" y1="142" x2="87.65" y2="130" stroke-width="8" opacity="0" />
  <line id="mol23:Bond:1" class="event" x1="150" y1="94" x2="170.78" y2="106" stroke-width="8" opacity="0" />
  <line id="mol23:Bond:3" class="event" x1="191.57" y1="94" x2="191.57" y2="70" stroke-width="8" opacity="0" />
  <line id="mol23:Bond:5" class="event" x1="170.78" y1="58" x2="150" y2="70" stroke-width="8" opacity="0" />
  <line id="mol23:Bond:6" class="event" x1="191.57" y1="70" x2="212.35" y2="58" stroke-width="8" opacity="0" />
  <line id="mol23:Bond:7" class="event" x1="212.35" y1="58" x2="233.14" y2="70" stroke-width="8" opacity="0" />
  <line id="mol23:Bond:8" class="event" x1="233.14" y1="70" x2="253.92" y2="58" stroke-width="8" opacity="0" />
  <line id="mol23:Bond:9" class="event" x1="150" y1="94" x2="129.22" y2="106" stroke-width="8" opacity="0" />
  <line id="mol23:Bond:10" class="event" x1="129.22" y1="106" x2="108.43" y2="94" stroke-width="8" opacity="0" />
  <line id="mol23:Bond:11" class="event" x1="108.43" y1="94" x2="87.65" y2="106" stroke-width="8" opacity="0" />
  <line id="mol23:Bond:13" class="event" x1="66.86" y1="94" x2="46.08" y2="106" stroke-width="8" opacity="0" />
  <line id="mol23:Bond:15" class="event" x1="46.08" y1="130" x2="66.86" y2="142" stroke-width="8" opacity="0" />
  <line id="mol23:Bond:17" class="event" x1="87.65" y1="130" x2="87.65" y2="106" stroke-width="8" opacity="0" />
  <line id="mol23:Bond:18" class="event" x1="170.78" y1="106" x2="170.78" y2="130" stroke-width="8" opacity="0" />
  <line id="mol23:Bond:19" class="event" x1="170.78" y1="130" x2="150" y2="142" stroke-width="8" opacity="0" />
  <circle id="mol23:Atom:0" class="event" cx="150" cy="70" r="8" opacity="0" />
  <circle id="mol23:Atom:1" class="event" cx="150" cy="94" r="8" opacity="0" />
  <circle id="mol23:Atom:2" class="event" cx="170.78" cy="106" r="8" opacity="0" />
  <circle id="mol23:Atom:3" class="event" cx="191.57" cy="94" r="8" opacity="0" />
  <circle id="mol23:Atom:4" class="event" cx="191.57" cy="70" r="8" opacity="0" />
  <circle id="mol23:Atom:5" class="event" cx="170.78" cy="58" r="8" opacity="0" />
  <circle id="mol23:Atom:6" class="event" cx="212.35" cy="58" r="8" opacity="0" />
  <circle id="mol23:Atom:7" class="event" cx="233.14" cy="70" r="8" opacity="0" />
  <circle id="mol23:Atom:8" class="event" cx="253.92" cy="58" r="8" opacity="0" />
  <circle id="mol23:Atom:9" class="event" cx="129.22" cy="106" r="8" opacity="0" />
  <circle id="mol23:Atom:10" class="event" cx="108.43" cy="94" r="8" opacity="0" />
  <circle id="mol23:Atom:11" class="event" cx="87.65" cy="106" r="8" opacity="0" />
  <circle id="mol23:Atom:12" class="event" cx="66.86" cy="94" r="8" opacity="0" />
  <circle id="mol23:Atom:13" class="event" cx="46.08" cy="106" r="8" opacity="0" />
  <circle id="mol23:Atom:14" class="event" cx="46.08" cy="130" r="8" opacity="0" />
  <circle id="mol23:Atom:15" class="event" cx="66.86" cy="142" r="8" opacity="0" />
  <circle id="mol23:Atom:16" class="event" cx="87.65" cy="130" r="8" opacity="0" />
  <circle id="mol23:Atom:17" class="event" cx="170.78" cy="130" r="8" opacity="0" />
  <circle id="mol23:Atom:18" class="event" cx="150" cy="142" r="8" opacity="0" />
</svg>