<svg id="mol11" xmlns="http://www.w3.org/2000/svg" version="1.1" width="244px" height="115px" viewBox="28 44 244 115">
  <style> text {font-family: sans-serif;} #mol11 { pointer-events:none; } #mol11 .event  { pointer-events:all; } line { stroke-linecap:round; } polygon { stroke-linejoin:round; } </style>
  <text x="238.48" y="62.67" stroke="none" font-size="14" fill="rgb(48,80,248)">N</text>
  <text x="258.69" y="66" stroke="none" font-size="9" fill="rgb(48,80,248)">2</text>
  <text x="248.59" y="62.67" stroke="none" font-size="14" fill="rgb(48,80,248)">H</text>
  <text x="51.41" y="146.67" stroke="none" font-size="14" fill="rgb(48,80,248)">N</text>
  <text x="46.41" y="150" stroke="none" font-size="9" fill="rgb(48,80,248)">2</text>
  <text x="36.3" y="146.67" stroke="none" font-size="14" fill="rgb(48,80,248)">H</text>
  <line x1="77.25" y1="106" x2="77.25" y2="130" stroke="rgb(0,0,0)" stroke-width="1.44" />
  <line x1="80.85" y1="108.56" x2="80.85" y2="127.44" stroke="rgb(0,0,0)" stroke-width="1.44" />
  <line x1="98.04" y1="142" x2="118.82" y2="130" stroke="rgb(0,0,0)" stroke-width="1.44" />
  <line x1="98.46" y1="137.6" x2="114.8" y2="128.16" stroke="rgb(0,0,0)" stroke-width="1.44" />
  <line x1="118.82" y1="106" x2="98.04" y2="94" stroke="rgb(0,0,0)" stroke-width="1.44" />
  <line x1="114.8" y1="107.84" x2="98.46" y2="98.4" stroke="rgb(0,0,0)" stroke-width="1.44" />
  <line x1="181.18" y1="94" x2="201.96" y2="106" stroke="rgb(0,0,0)" stroke-width="1.44" />
  <line x1="185.19" y1="92.16" x2="201.54" y2="101.6" stroke="rgb(0,0,0)" stroke-width="1.44" />
  <line x1="222.75" y1="94" x2="222.75" y2="70" stroke="rgb(0,0,0)" stroke-width="1.44" />
  <line x1="219.15" y1="91.44" x2="219.15" y2="72.56" stroke="rgb(0,0,0)" stroke-width="1.44" />
  <line x1="201.96" y1="58" x2="181.18" y2="70" stroke="rgb(0,0,0)" stroke-width="1.44" />
  <line x1="201.54" y1="62.4" x2="185.19" y2="71.84" stroke="rgb(0,0,0)" stroke-width="1.44" />
  <line x1="77.25" y1="130" x2="98.04" y2="142" stroke="rgb(0,0,0)" stroke-width="1.44" />
  <line x1="118.82" y1="130" x2="118.82" y2="106" stroke="rgb(0,0,0)" stroke-width="1.44" />
  <line x1="98.04" y1="94" x2="77.25" y2="106" stroke="rgb(0,0,0)" stroke-width="1.44" />
  <line x1="118.82" y1="106" x2="139.61" y2="94" stroke="rgb(0,0,0)" stroke-width="1.44" />
  <line x1="139.61" y1="94" x2="160.39" y2="106" stroke="rgb(0,0,0)" stroke-width="1.44" />
  <line x1="160.39" y1="106" x2="181.18" y2="94" stroke="rgb(0,0,0)" stroke-width="1.44" />
  <line x1="201.96" y1="106" x2="222.75" y2="94" stroke="rgb(0,0,0)" stroke-width="1.44" />
  <line x1="222.75" y1="70" x2="201.96" y2="58" stroke="rgb(0,0,0)" stroke-width="1.44" />
  <line x1="181.18" y1="70" x2="181.18" y2="94" stroke="rgb(0,0,0)" stroke-width="1.44" />
  <line x1="222.75" y1="70" x2="237.48" y2="61.5" stroke="rgb(0,0,0)" stroke-width="1.44" />
  <line x1="77.25" y1="130" x2="62.52" y2="138.5" stroke="rgb(0,0,0)" stroke-width="1.44" />
  <line id="mol11:Bond:0" class="event" x1="77.25" y1="106" x2="77.25" y2="130" stroke-width="8" opacity="0" />
  <line id="mol11:Bond:2" class="event" x1="98.04" y1="142" x2="118.82" y2="130" stroke-width="8" opacity="0" />
  <line id="mol11:Bond:4" class="event" x1="118.82" y1="106" x2="98.04" y2="94" stroke-width="8" opacity="0" />
  <line id="mol11:Bond:9" class="event" x1="181.18" y1="94" x2="201.96" y2="106" stroke-width="8" opacity="0" />
  <line id="mol11:Bond:11" class="event" x1="222.75" y1="94" x2="222.75" y2="70" stroke-width="8" opacity="0" />
  <line id="mol11:Bond:13" class="event" x1="201.96" y1="58" x2="181.18" y2="70" stroke-width="8" opacity="0" />
  <line id="mol11:Bond:1" class="event" x1="77.25" y1="130" x2="98.04" y2="142" stroke-width="8" opacity="0" />
  <line id="mol11:Bond:3" class="event" x1="118.82" y1="130" x2="118.82" y2="106" stroke-width="8" opacity="0" />
  <line id="mol11:Bond:5" class="event" x1="98.04" y1="94" x2="77.25" y2="106" stroke-width="8" opacity="0" />
  <line id="mol11:Bond:6" class="event" x1="118.82" y1="106" x2="139.61" y2="94" stroke-width="8" opacity="0" />
  <line id="mol11:Bond:7" class="event" x1="139.61" y1="94" x2="160.39" y2="106" stroke-width="8" opacity="0" />
  <line id="mol11:Bond:8" class="event" x1="160.39" y1="106" x2="181.18" y2="94" stroke-width="8" opacity="0" />
  <line id="mol11:Bond:10" class="event" x1="201.96" y1="106" x2="222.75" y2="94" stroke-width="8" opacity="0" />
  <line id="mol11:Bond:12" class="event" x1="222.75" y1="70" x2="201.96" y2="58" stroke-width="8" opacity="0" />
  <line id="mol11:Bond:14" class="event" x1="181.18" y1="70" x2="181.18" y2="94" stroke-width="8" opacity="0" />
  <line id="mol11:Bond:15" class="event" x1="222.75" y1="70" x2="243.53" y2="58" stroke-width="8" opacity="0" />
  <line id="mol11:Bond:16" class="event" x1="77.25" y1="130" x2="56.47" y2="142" stroke-width="8" opacity="0" />
  <circle id="mol11:Atom:0" class="event" cx="77.25" cy="106" r="8" opacity="0" />
  <circle id="mol11:Atom:1" class="event" cx="77.25" cy="130" r="8" opacity="0" />
  <circle id="mol11:Atom:2" class="event" cx="98.04" cy="142" r="8" opacity="0" />
  <circle id="mol11:Atom:3" class="event" cx="118.82" cy="130" r="8" opacity="0" />
  <circle id="mol11:Atom:4" class="event" cx="118.82" cy="106" r="8" opacity="0" />
  <circle id="mol11:Atom:5" class="event" cx="98.04" cy="94" r="8" opacity="0" />
  <circle id="mol11:Atom:6" class="event" cx="139.61" cy="94" r="8" opacity="0" />
  <circle id="mol11:Atom:7" class="event" cx="160.39" cy="106" r="8" opacity="0" />
  <circle id="mol11:Atom:8" class="event" cx="181.18" cy="94" r="8" opacity="0" />
  <circle id="mol11:Atom:9" class="event" cx="201.96" cy="106" r="8" opacity="0" />
  <circle id="mol11:Atom:10" class="event" cx="222.75" cy="94" r="8" opacity="0" />
  <circle id="mol11:Atom:11" class="event" cx="222.75" cy="70" r="8" opacity="0" />
  <circle id="mol11:Atom:12" class="event" cx="201.96" cy="58" r="8" opacity="0" />
  <circle id="mol11:Atom:13" class="event" cx="181.18" cy="70" r="8" opacity="0" />
  <circle id="mol11:Atom:14" class="event" cx="243.53" cy="58" r="8" opacity="0" />
  <circle id="mol11:Atom:15" class="event" cx="56.47" cy="142" r="8" opacity="0" />
</svg>