<svg id="mol12" xmlns="http://www.w3.org/2000/svg" version="1.1" width="208px" height="99px" viewBox="43 51 208 99">
  <style> text {font-family: sans-serif;} #mol12 { pointer-events:none; } #mol12 .event  { pointer-events:all; } line { stroke-linecap:round; } polygon { stroke-linejoin:round; } </style>
  <text x="154.95" y="98.67" stroke="none" font-size="14" fill="rgb(255,13,13)">O</text>
  <text x="51.02" y="134.67" stroke="none" font-size="14" fill="rgb(255,13,13)">O</text>
  <line x1="98.04" y1="130" x2="118.82" y2="142" stroke="rgb(0,0,0)" stroke-width="1.44" />
  <line x1="102.06" y1="128.16" x2="118.4" y2="137.6" stroke="rgb(0,0,0)" stroke-width="1.44" />
  <line x1="139.61" y1="130" x2="139.61" y2="106" stroke="rgb(0,0,0)" stroke-width="1.44" />
  <line x1="136.01" y1="127.44" x2="136.01" y2="108.56" stroke="rgb(0,0,0)" stroke-width="1.44" />
  <line x1="118.82" y1="94" x2="98.04" y2="106" stroke="rgb(0,0,0)" stroke-width="1.44" />
  <line x1="118.4" y1="98.4" x2="102.06" y2="107.84" stroke="rgb(0,0,0)" stroke-width="1.44" />
  <line x1="201.96" y1="94" x2="222.75" y2="106" stroke="rgb(0,0,0)" stroke-width="1.44" />
  <line x1="205.98" y1="92.16" x2="222.33" y2="101.6" stroke="rgb(0,0,0)" stroke-width="1.44" />
  <line x1="243.53" y1="94" x2="243.53" y2="70" stroke="rgb(0,0,0)" stroke-width="1.44" />
  <line x1="239.93" y1="91.44" x2="239.93" y2="72.56" stroke="rgb(0,0,0)" stroke-width="1.44" />
  <line x1="222.75" y1="58" x2="201.96" y2="70" stroke="rgb(0,0,0)" stroke-width="1.44" />
  <line x1="222.33" y1="62.4" x2="205.98" y2="71.84" stroke="rgb(0,0,0)" stroke-width="1.44" />
  <line x1="75.94" y1="139.16" x2="63.82" y2="132.16" stroke="rgb(0,0,0)" stroke-width="1.44" />
  <line x1="76.35" y1="143.56" x2="62.02" y2="135.28" stroke="rgb(0,0,0)" stroke-width="1.44" />
  <line x1="76.35" y1="143.56" x2="98.04" y2="130" stroke="rgb(0,0,0)" stroke-width="1.44" />
  <line x1="118.82" y1="142" x2="139.61" y2="130" stroke="rgb(0,0,0)" stroke-width="1.44" />
  <line x1="139.61" y1="106" x2="118.82" y2="94" stroke="rgb(0,0,0)" stroke-width="1.44" />
  <line x1="98.04" y1="106" x2="98.04" y2="130" stroke="rgb(0,0,0)" stroke-width="1.44" />
  <line x1="139.61" y1="106" x2="153.95" y2="97.72" stroke="rgb(0,0,0)" stroke-width="1.44" />
  <line x1="166.84" y1="97.72" x2="181.18" y2="106" stroke="rgb(0,0,0)" stroke-width="1.44" />
  <line x1="181.18" y1="106" x2="201.96" y2="94" stroke="rgb(0,0,0)" stroke-width="1.44" />
  <line x1="222.75" y1="106" x2="243.53" y2="94" stroke="rgb(0,0,0)" stroke-width="1.44" />
  <line x1="243.53" y1="70" x2="222.75" y2="58" stroke="rgb(0,0,0)" stroke-width="1.44" />
  <line x1="201.96" y1="70" x2="201.96" y2="94" stroke="rgb(0,0,0)" stroke-width="1.44" />
  <line id="mol12:Bond:1" class="event" x1="98.04" y1="130" x2="118.82" y2="142" stroke-width="8" opacity="0" />
  <line id="mol12:Bond:3" class="event" x1="139.61" y1="130" x2="139.61" y2="106" stroke-width="8" opacity="0" />
  <line id="mol12:Bond:5" class="event" x1="118.82" y1="94" x2="98.04" y2="106" stroke-width="8" opacity="0" />
  <line id="mol12:Bond:10" class="event" x1="201.96" y1="94" x2="222.75" y2="106" stroke-width="8" opacity="0" />
  <line id="mol12:Bond:12" class="event" x1="243.53" y1="94" x2="243.53" y2="70" stroke-width="8" opacity="0" />
  <line id="mol12:Bond:14" class="event" x1="222.75" y1="58" x2="201.96" y2="70" stroke-width="8" opacity="0" />
  <line id="mol12:Bond:16" class="event" x1="77.25" y1="142" x2="56.47" y2="130" stroke-width="8" opacity="0" />
  <line id="mol12:Bond:0" class="event" x1="77.25" y1="142" x2="98.04" y2="130" stroke-width="8" opacity="0" />
  <line id="mol12:Bond:2" class="event" x1="118.82" y1="142" x2="139.61" y2="130" stroke-width="8" opacity="0" />
  <line id="mol12:Bond:4" class="event" x1="139.61" y1="106" x2="118.82" y2="94" stroke-width="8" opacity="0" />
  <line id="mol12:Bond:6" class="event" x1="98.04" y1="106" x2="98.04" y2="130" stroke-width="8" opacity="0" />
  <line id="mol12:Bond:7" class="event" x1="139.61" y1="106" x2="160.39" y2="94" stroke-width="8" opacity="0" />
  <line id="mol12:Bond:8" class="event" x1="160.39" y1="94" x2="181.18" y2="106" stroke-width="8" opacity="0" />
  <line id="mol12:Bond:9" class="event" x1="181.18" y1="106" x2="201.96" y2="94" stroke-width="8" opacity="0" />
  <line id="mol12:Bond:11" class="event" x1="222.75" y1="106" x2="243.53" y2="94" stroke-width="8" opacity="0" />
  <line id="mol12:Bond:13" class="event" x1="243.53" y1="70" x2="222.75" y2="58" stroke-width="8" opacity="0" />
  <line id="mol12:Bond:15" class="event" x1="201.96" y1="70" x2="201.96" y2="94" stroke-width="8" opacity="0" />
  <circle id="mol12:Atom:0" class="event" cx="77.25" cy="142" r="8" opacity="0" />
  <circle id="mol12:Atom:1" class="event" cx="98.04" cy="130" r="8" opacity="0" />
  <circle id="mol12:Atom:2" class="event" cx="118.82" cy="142" r="8" opacity="0" />
  <circle id="mol12:Atom:3" class="event" cx="139.61" cy="130" r="8" opacity="0" />
  <circle id="mol12:Atom:4" class="event" cx="139.61" cy="106" r="8" opacity="0" />
  <circle id="mol12:Atom:5" class="event" cx="118.82" cy="94" r="8" opacity="0" />
  <circle id="mol12:Atom:6" class="event" cx="98.04" cy="106" r="8" opacity="0" />
  <circle id="mol12:Atom:7" class="event" cx="160.39" cy="94" r="8" opacity="0" />
  <circle id="mol12:Atom:8" class="event" cx="181.18" cy="106" r="8" opacity="0" />
  <circle id="mol12:Atom:9" class="event" cx="201.96" cy="94" r="8" opacity="0" />
  <circle id="mol12:Atom:10" class="event" cx="222.75" cy="106" r="8" opacity="0" />
  <circle id="mol12:Atom:11" class="event" cx="243.53" cy="94" r="8" opacity="0" />
  <circle id="mol12:Atom:12" class="event" cx="243.53" cy="70" r="8" opacity="0" />
  <circle id="mol12:Atom:13" class="event" cx="222.75" cy="58" r="8" opacity="0" />
  <circle id="mol12:Atom:14" class="event" cx="201.96" cy="70" r="8" opacity="0" />
  <circle id="mol12:Atom:15" class="event" cx="56.47" cy="130" r="8" opacity="0" />
</svg>