<svg id="mol15" xmlns="http://www.w3.org/2000/svg" version="1.1" width="141px" height="123px" viewBox="79 35 141 123">
  <style> text {font-family: sans-serif;} #mol15 { pointer-events:none; } #mol15 .event  { pointer-events:all; } line { stroke-linecap:round; } polygon { stroke-linejoin:round; } </style>
  <text x="134.05" y="87.33" stroke="none" font-size="14" fill="rgb(255,13,13)">O</text>
  <text x="123.94" y="87.33" stroke="none" font-size="14" fill="rgb(255,13,13)">H</text>
  <text x="186.73" y="82.59" stroke="none" font-size="14" fill="rgb(255,13,13)">O</text>
  <text x="102.38" y="82.59" stroke="none" font-size="14" fill="rgb(255,13,13)">O</text>
  <text x="138.01" y="54.02" stroke="none" font-size="14" fill="rgb(0,0,0)">H</text>
  <text x="179.58" y="54.02" stroke="none" font-size="14" fill="rgb(0,0,0)">H</text>
  <line x1="86.73" y1="114.12" x2="86.73" y2="138.47" stroke="rgb(0,0,0)" stroke-width="1.44" />
  <line x1="90.33" y1="116.68" x2="90.33" y2="135.91" stroke="rgb(0,0,0)" stroke-width="1.44" />
  <line x1="107.82" y1="150.65" x2="128.91" y2="138.47" stroke="rgb(0,0,0)" stroke-width="1.44" />
  <line x1="108.24" y1="146.25" x2="124.89" y2="136.63" stroke="rgb(0,0,0)" stroke-width="1.44" />
  <line x1="128.91" y1="114.12" x2="107.82" y2="101.94" stroke="rgb(0,0,0)" stroke-width="1.44" />
  <line x1="124.89" y1="115.96" x2="108.24" y2="106.34" stroke="rgb(0,0,0)" stroke-width="1.44" />
  <line x1="171.09" y1="114.12" x2="171.09" y2="138.47" stroke="rgb(0,0,0)" stroke-width="1.44" />
  <line x1="174.69" y1="116.68" x2="174.69" y2="135.91" stroke="rgb(0,0,0)" stroke-width="1.44" />
  <line x1="192.18" y1="150.65" x2="213.27" y2="138.47" stroke="rgb(0,0,0)" stroke-width="1.44" />
  <line x1="192.6" y1="146.25" x2="209.25" y2="136.63" stroke="rgb(0,0,0)" stroke-width="1.44" />
  <line x1="213.27" y1="114.12" x2="192.18" y2="101.94" stroke="rgb(0,0,0)" stroke-width="1.44" />
  <line x1="209.25" y1="115.96" x2="192.6" y2="106.34" stroke="rgb(0,0,0)" stroke-width="1.44" />
  <line x1="163.85" y1="85.71" x2="163.85" y2="61.35" stroke="rgb(0,0,0)" stroke-width="1.44" />
  <line x1="160.25" y1="84.22" x2="160.25" y2="61.35" stroke="rgb(0,0,0)" stroke-width="1.44" />
  <line x1="86.73" y1="138.47" x2="107.82" y2="150.65" stroke="rgb(0,0,0)" stroke-width="1.44" />
  <line x1="128.91" y1="138.47" x2="128.91" y2="114.12" stroke="rgb(0,0,0)" stroke-width="1.44" />
  <line x1="107.82" y1="101.94" x2="86.73" y2="114.12" stroke="rgb(0,0,0)" stroke-width="1.44" />
  <line x1="128.91" y1="114.12" x2="150" y2="101.94" stroke="rgb(0,0,0)" stroke-width="1.44" />
  <line x1="150" y1="101.94" x2="171.09" y2="114.12" stroke="rgb(0,0,0)" stroke-width="1.44" />
  <line x1="171.09" y1="138.47" x2="192.18" y2="150.65" stroke="rgb(0,0,0)" stroke-width="1.44" />
  <line x1="213.27" y1="138.47" x2="213.27" y2="114.12" stroke="rgb(0,0,0)" stroke-width="1.44" />
  <line x1="192.18" y1="101.94" x2="171.09" y2="114.12" stroke="rgb(0,0,0)" stroke-width="1.44" />
  <line x1="150" y1="101.94" x2="143.31" y2="89.66" stroke="rgb(0,0,0)" stroke-width="1.44" />
  <line x1="150" y1="101.94" x2="163.85" y2="85.71" stroke="rgb(0,0,0)" stroke-width="1.44" />
  <line x1="192.18" y1="101.94" x2="192.18" y2="84.93" stroke="rgb(0,0,0)" stroke-width="1.44" />
  <line x1="107.82" y1="101.94" x2="107.82" y2="84.93" stroke="rgb(0,0,0)" stroke-width="1.44" />
  <line x1="101.38" y1="74.21" x2="87.03" y2="65.92" stroke="rgb(0,0,0)" stroke-width="1.44" />
  <line x1="198.63" y1="74.29" x2="212.55" y2="66.43" stroke="rgb(0,0,0)" stroke-width="1.44" />
  <line x1="163.85" y1="61.35" x2="149.12" y2="52.85" stroke="rgb(0,0,0)" stroke-width="1.44" />
  <line x1="163.85" y1="61.35" x2="178.58" y2="52.85" stroke="rgb(0,0,0)" stroke-width="1.44" />
  <line id="mol15:Bond:0" class="event" x1="86.73" y1="114.12" x2="86.73" y2="138.47" stroke-width="8" opacity="0" />
  <line id="mol15:Bond:2" class="event" x1="107.82" y1="150.65" x2="128.91" y2="138.47" stroke-width="8" opacity="0" />
  <line id="mol15:Bond:4" class="event" x1="128.91" y1="114.12" x2="107.82" y2="101.94" stroke-width="8" opacity="0" />
  <line id="mol15:Bond:8" class="event" x1="171.09" y1="114.12" x2="171.09" y2="138.47" stroke-width="8" opacity="0" />
  <line id="mol15:Bond:10" class="event" x1="192.18" y1="150.65" x2="213.27" y2="138.47" stroke-width="8" opacity="0" />
  <line id="mol15:Bond:12" class="event" x1="213.27" y1="114.12" x2="192.18" y2="101.94" stroke-width="8" opacity="0" />
  <line id="mol15:Bond:20" class="event" x1="163.85" y1="85.71" x2="163.85" y2="61.35" stroke-width="8" opacity="0" />
  <line id="mol15:Bond:1" class="event" x1="86.73" y1="138.47" x2="107.82" y2="150.65" stroke-width="8" opacity="0" />
  <line id="mol15:Bond:3" class="event" x1="128.91" y1="138.47" x2="128.91" y2="114.12" stroke-width="8" opacity="0" />
  <line id="mol15:Bond:5" class="event" x1="107.82" y1="101.94" x2="86.73" y2="114.12" stroke-width="8" opacity="0" />
  <line id="mol15:Bond:6" class="event" x1="128.91" y1="114.12" x2="150" y2="101.94" stroke-width="8" opacity="0" />
  <line id="mol15:Bond:7" class="event" x1="150" y1="101.94" x2="171.09" y2="114.12" stroke-width="8" opacity="0" />
  <line id="mol15:Bond:9" class="event" x1="171.09" y1="138.47" x2="192.18" y2="150.65" stroke-width="8" opacity="0" />
  <line id="mol15:Bond:11" class="event" x1="213.27" y1="138.47" x2="213.27" y2="114.12" stroke-width="8" opacity="0" />
  <line id="mol15:Bond:13" class="event" x1="192.18" y1="101.94" x2="171.09" y2="114.12" stroke-width="8" opacity="0" />
  <line id="mol15:Bond:14" class="event" x1="150" y1="101.94" x2="139.5" y2="82.66" stroke-width="8" opacity="0" />
  <line id="mol15:Bond:15" class="event" x1="150" y1="101.94" x2="163.85" y2="85.71" stroke-width="8" opacity="0" />
  <line id="mol15:Bond:16" class="event" x1="192.18" y1="101.94" x2="192.18" y2="77.93" stroke-width="8" opacity="0" />
  <line id="mol15:Bond:17" class="event" x1="107.82" y1="101.94" x2="107.82" y2="77.93" stroke-width="8" opacity="0" />
  <line id="mol15:Bond:18" class="event" x1="107.82" y1="77.93" x2="87.03" y2="65.92" stroke-width="8" opacity="0" />
  <line id="mol15:Bond:19" class="event" x1="192.18" y1="77.93" x2="212.55" y2="66.43" stroke-width="8" opacity="0" />
  <line id="mol15:Bond:21" class="event" x1="163.85" y1="61.35" x2="143.06" y2="49.35" stroke-width="8" opacity="0" />
  <line id="mol15:Bond:22" class="event" x1="163.85" y1="61.35" x2="184.63" y2="49.35" stroke-width="8" opacity="0" />
  <circle id="mol15:Atom:0" class="event" cx="86.73" cy="114.12" r="8" opacity="0" />
  <circle id="mol15:Atom:1" class="event" cx="86.73" cy="138.47" r="8" opacity="0" />
  <circle id="mol15:Atom:2" class="event" cx="107.82" cy="150.65" r="8" opacity="0" />
  <circle id="mol15:Atom:3" class="event" cx="128.91" cy="138.47" r="8" opacity="0" />
  <circle id="mol15:Atom:4" class="event" cx="128.91" cy="114.12" r="8" opacity="0" />
  <circle id="mol15:Atom:5" class="event" cx="107.82" cy="101.94" r="8" opacity="0" />
  <circle id="mol15:Atom:6" class="event" cx="150" cy="101.94" r="8" opacity="0" />
  <circle id="mol15:Atom:7" class="event" cx="171.09" cy="114.12" r="8" opacity="0" />
  <circle id="mol15:Atom:8" class="event" cx="171.09" cy="138.47" r="8" opacity="0" />
  <circle id="mol15:Atom:9" class="event" cx="192.18" cy="150.65" r="8" opacity="0" />
  <circle id="mol15:Atom:10" class="event" cx="213.27" cy="138.47" r="8" opacity="0" />
  <circle id="mol15:Atom:11" class="event" cx="213.27" cy="114.12" r="8" opacity="0" />
  <circle id="mol15:Atom:12" class="event" cx="192.18" cy="101.94" r="8" opacity="0" />
  <circle id="mol15:Atom:13" class="event" cx="139.5" cy="82.66" r="8" opacity="0" />
  <circle id="mol15:Atom:14" class="event" cx="163.85" cy="85.71" r="8" opacity="0" />
  <circle id="mol15:Atom:15" class="event" cx="192.18" cy="77.93" r="8" opacity="0" />
  <circle id="mol15:Atom:16" class="event" cx="107.82" cy="77.93" r="8" opacity="0" />
  <circle id="mol15:Atom:17" class="event" cx="87.03" cy="65.92" r="8" opacity="0" />
  <circle id="mol15:Atom:18" class="event" cx="212.55" cy="66.43" r="8" opacity="0" />
  <circle id="mol15:Atom:19" class="event" cx="163.85" cy="61.35" r="8" opacity="0" />
  <circle id="mol15:Atom:20" class="event" cx="143.06" cy="49.35" r="8" opacity="0" />
  <circle id="mol15:Atom:21" class="event" cx="184.63" cy="49.35" r="8" opacity="0" />
</svg>