<svg id="mol1" xmlns="http://www.w3.org/2000/svg" version="1.1" width="104px" height="99px" viewBox="101 51 104 99">
  <style> text {font-family: sans-serif;} #mol1 { pointer-events:none; } #mol1 .event  { pointer-events:all; } line { stroke-linecap:round; } polygon { stroke-linejoin:round; } </style>
  <text x="123.77" y="74.67" stroke="none" font-size="14" fill="rgb(255,13,13)">O</text>
  <text x="186.12" y="134.67" stroke="none" font-size="14" fill="rgb(255,13,13)">O</text>
  <line x1="108.43" y1="106" x2="108.43" y2="130" stroke="rgb(0,0,0)" stroke-width="1.44" />
  <line x1="112.03" y1="108.56" x2="112.03" y2="127.44" stroke="rgb(0,0,0)" stroke-width="1.44" />
  <line x1="129.21" y1="142" x2="150" y2="130" stroke="rgb(0,0,0)" stroke-width="1.44" />
  <line x1="129.63" y1="137.6" x2="145.98" y2="128.16" stroke="rgb(0,0,0)" stroke-width="1.44" />
  <line x1="150" y1="106" x2="129.21" y2="94" stroke="rgb(0,0,0)" stroke-width="1.44" />
  <line x1="145.98" y1="107.84" x2="129.63" y2="98.4" stroke="rgb(0,0,0)" stroke-width="1.44" />
  <line x1="171.68" y1="143.56" x2="186.02" y2="135.28" stroke="rgb(0,0,0)" stroke-width="1.44" />
  <line x1="172.1" y1="139.16" x2="184.22" y2="132.16" stroke="rgb(0,0,0)" stroke-width="1.44" />
  <line x1="108.43" y1="130" x2="129.21" y2="142" stroke="rgb(0,0,0)" stroke-width="1.44" />
  <line x1="150" y1="130" x2="150" y2="106" stroke="rgb(0,0,0)" stroke-width="1.44" />
  <line x1="129.21" y1="94" x2="108.43" y2="106" stroke="rgb(0,0,0)" stroke-width="1.44" />
  <line x1="129.21" y1="94" x2="129.21" y2="77" stroke="rgb(0,0,0)" stroke-width="1.44" />
  <line x1="150" y1="130" x2="171.68" y2="143.56" stroke="rgb(0,0,0)" stroke-width="1.44" />
  <line x1="122.77" y1="66.28" x2="108.43" y2="58" stroke="rgb(0,0,0)" stroke-width="1.44" />
  <line id="mol1:Bond:0" class="event" x1="108.43" y1="106" x2="108.43" y2="130" stroke-width="8" opacity="0" />
  <line id="mol1:Bond:2" class="event" x1="129.21" y1="142" x2="150" y2="130" stroke-width="8" opacity="0" />
  <line id="mol1:Bond:4" class="event" x1="150" y1="106" x2="129.21" y2="94" stroke-width="8" opacity="0" />
  <line id="mol1:Bond:8" class="event" x1="170.78" y1="142" x2="191.57" y2="130" stroke-width="8" opacity="0" />
  <line id="mol1:Bond:1" class="event" x1="108.43" y1="130" x2="129.21" y2="142" stroke-width="8" opacity="0" />
  <line id="mol1:Bond:3" class="event" x1="150" y1="130" x2="150" y2="106" stroke-width="8" opacity="0" />
  <line id="mol1:Bond:5" class="event" x1="129.21" y1="94" x2="108.43" y2="106" stroke-width="8" opacity="0" />
  <line id="mol1:Bond:6" class="event" x1="129.21" y1="94" x2="129.21" y2="70" stroke-width="8" opacity="0" />
  <line id="mol1:Bond:7" class="event" x1="150" y1="130" x2="170.78" y2="142" stroke-width="8" opacity="0" />
  <line id="mol1:Bond:9" class="event" x1="129.21" y1="70" x2="108.43" y2="58" stroke-width="8" opacity="0" />
  <circle id="mol1:Atom:0" class="event" cx="108.43" cy="106" r="8" opacity="0" />
  <circle id="mol1:Atom:1" class="event" cx="108.43" cy="130" r="8" opacity="0" />
  <circle id="mol1:Atom:2" class="event" cx="129.21" cy="142" r="8" opacity="0" />
  <circle id="mol1:Atom:3" class="event" cx="150" cy="130" r="8" opacity="0" />
  <circle id="mol1:Atom:4" class="event" cx="150" cy="106" r="8" opacity="0" />
  <circle id="mol1:Atom:5" class="event" cx="129.21" cy="94" r="8" opacity="0" />
  <circle id="mol1:Atom:6" class="event" cx="129.21" cy="70" r="8" opacity="0" />
  <circle id="mol1:Atom:7" class="event" cx="170.78" cy="142" r="8" opacity="0" />
  <circle id="mol1:Atom:8" class="event" cx="191.57" cy="130" r="8" opacity="0" />
  <circle id="mol1:Atom:9" class="event" cx="108.43" cy="58" r="8" opacity="0" />
</svg>