<svg id="mol4" xmlns="http://www.w3.org/2000/svg" version="1.1" width="94px" height="118px" viewBox="111 38 94 118">
  <style> text {font-family: sans-serif;} #mol4 { pointer-events:none; } #mol4 .event  { pointer-events:all; } line { stroke-linecap:round; } polygon { stroke-linejoin:round; } </style>
  <text x="175.73" y="104.67" stroke="none" font-size="14" fill="rgb(255,13,13)">O</text>
  <text x="186.62" y="104.67" stroke="none" font-size="14" fill="rgb(255,13,13)">H</text>
  <text x="134.55" y="56.67" stroke="none" font-size="14" fill="rgb(48,80,248)">N</text>
  <line x1="118.82" y1="112" x2="118.82" y2="136" stroke="rgb(0,0,0)" stroke-width="1.44" />
  <line x1="122.42" y1="114.56" x2="122.42" y2="133.44" stroke="rgb(0,0,0)" stroke-width="1.44" />
  <line x1="139.61" y1="148" x2="160.39" y2="136" stroke="rgb(0,0,0)" stroke-width="1.44" />
  <line x1="140.02" y1="143.6" x2="156.37" y2="134.16" stroke="rgb(0,0,0)" stroke-width="1.44" />
  <line x1="160.39" y1="112" x2="139.61" y2="100" stroke="rgb(0,0,0)" stroke-width="1.44" />
  <line x1="156.37" y1="113.84" x2="140.02" y2="104.4" stroke="rgb(0,0,0)" stroke-width="1.44" />
  <line x1="118.82" y1="136" x2="139.61" y2="148" stroke="rgb(0,0,0)" stroke-width="1.44" />
  <line x1="160.39" y1="136" x2="160.39" y2="112" stroke="rgb(0,0,0)" stroke-width="1.44" />
  <line x1="139.61" y1="100" x2="118.82" y2="112" stroke="rgb(0,0,0)" stroke-width="1.44" />
  <line x1="160.39" y1="112" x2="174.73" y2="103.72" stroke="rgb(0,0,0)" stroke-width="1.44" />
  <line x1="139.61" y1="100" x2="139.61" y2="76" stroke="rgb(0,0,0)" stroke-width="1.44" />
  <line x1="139.61" y1="76" x2="139.61" y2="59" stroke="rgb(0,0,0)" stroke-width="1.44" />
  <line x1="143.21" y1="76" x2="143.21" y2="59" stroke="rgb(0,0,0)" stroke-width="1.44" />
  <line x1="136.01" y1="76" x2="136.01" y2="59" stroke="rgb(0,0,0)" stroke-width="1.44" />
  <line id="mol4:Bond:0" class="event" x1="118.82" y1="112" x2="118.82" y2="136" stroke-width="8" opacity="0" />
  <line id="mol4:Bond:2" class="event" x1="139.61" y1="148" x2="160.39" y2="136" stroke-width="8" opacity="0" />
  <line id="mol4:Bond:4" class="event" x1="160.39" y1="112" x2="139.61" y2="100" stroke-width="8" opacity="0" />
  <line id="mol4:Bond:1" class="event" x1="118.82" y1="136" x2="139.61" y2="148" stroke-width="8" opacity="0" />
  <line id="mol4:Bond:3" class="event" x1="160.39" y1="136" x2="160.39" y2="112" stroke-width="8" opacity="0" />
  <line id="mol4:Bond:5" class="event" x1="139.61" y1="100" x2="118.82" y2="112" stroke-width="8" opacity="0" />
  <line id="mol4:Bond:6" class="event" x1="160.39" y1="112" x2="181.18" y2="100" stroke-width="8" opacity="0" />
  <line id="mol4:Bond:7" class="event" x1="139.61" y1="100" x2="139.61" y2="76" stroke-width="8" opacity="0" />
  <line id="mol4:Bond:8" class="event" x1="139.61" y1="76" x2="139.61" y2="52" stroke-width="8" opacity="0" />
  <circle id="mol4:Atom:0" class="event" cx="118.82" cy="112" r="8" opacity="0" />
  <circle id="mol4:Atom:1" class="event" cx="118.82" cy="136" r="8" opacity="0" />
  <circle id="mol4:Atom:2" class="event" cx="139.61" cy="148" r="8" opacity="0" />
  <circle id="mol4:Atom:3" class="event" cx="160.39" cy="136" r="8" opacity="0" />
  <circle id="mol4:Atom:4" class="event" cx="160.39" cy="112" r="8" opacity="0" />
  <circle id="mol4:Atom:5" class="event" cx="139.61" cy="100" r="8" opacity="0" />
  <circle id="mol4:Atom:6" class="event" cx="181.18" cy="100" r="8" opacity="0" />
  <circle id="mol4:Atom:7" class="event" cx="139.61" cy="76" r="8" opacity="0" />
  <circle id="mol4:Atom:8" class="event" cx="139.61" cy="52" r="8" opacity="0" />
</svg>