<svg id="mol7" xmlns="http://www.w3.org/2000/svg" version="1.1" width="181px" height="94px" viewBox="59 50 181 94">
  <style> text {font-family: sans-serif;} #mol7 { pointer-events:none; } #mol7 .event  { pointer-events:all; } line { stroke-linecap:round; } polygon { stroke-linejoin:round; } </style>
  <text x="186.12" y="104.67" stroke="none" font-size="14" fill="rgb(255,13,13)">O</text>
  <text x="165.34" y="68.67" stroke="none" font-size="14" fill="rgb(255,13,13)">O</text>
  <line x1="66.86" y1="100" x2="66.86" y2="124" stroke="rgb(0,0,0)" stroke-width="1.44" />
  <line x1="70.46" y1="102.56" x2="70.46" y2="121.44" stroke="rgb(0,0,0)" stroke-width="1.44" />
  <line x1="87.65" y1="136" x2="108.43" y2="124" stroke="rgb(0,0,0)" stroke-width="1.44" />
  <line x1="88.06" y1="131.6" x2="104.41" y2="122.16" stroke="rgb(0,0,0)" stroke-width="1.44" />
  <line x1="108.43" y1="100" x2="87.65" y2="88" stroke="rgb(0,0,0)" stroke-width="1.44" />
  <line x1="104.41" y1="101.84" x2="88.06" y2="92.4" stroke="rgb(0,0,0)" stroke-width="1.44" />
  <line x1="129.22" y1="88" x2="150" y2="100" stroke="rgb(0,0,0)" stroke-width="1.44" />
  <line x1="131.43" y1="85.12" x2="149.58" y2="95.6" stroke="rgb(0,0,0)" stroke-width="1.44" />
  <line x1="172.58" y1="89.04" x2="172.58" y2="71" stroke="rgb(0,0,0)" stroke-width="1.44" />
  <line x1="168.98" y1="89.04" x2="168.98" y2="71" stroke="rgb(0,0,0)" stroke-width="1.44" />
  <line x1="66.86" y1="124" x2="87.65" y2="136" stroke="rgb(0,0,0)" stroke-width="1.44" />
  <line x1="108.43" y1="124" x2="108.43" y2="100" stroke="rgb(0,0,0)" stroke-width="1.44" />
  <line x1="87.65" y1="88" x2="66.86" y2="100" stroke="rgb(0,0,0)" stroke-width="1.44" />
  <line x1="108.43" y1="100" x2="129.22" y2="88" stroke="rgb(0,0,0)" stroke-width="1.44" />
  <line x1="150" y1="100" x2="170.78" y2="88" stroke="rgb(0,0,0)" stroke-width="1.44" />
  <line x1="170.78" y1="88" x2="185.12" y2="96.28" stroke="rgb(0,0,0)" stroke-width="1.44" />
  <line x1="198.01" y1="96.28" x2="212.35" y2="88" stroke="rgb(0,0,0)" stroke-width="1.44" />
  <line x1="212.35" y1="88" x2="233.14" y2="100" stroke="rgb(0,0,0)" stroke-width="1.44" />
  <text x="132.61" y="103.93" stroke="none" font-size="9" fill="rgb(160,0,0)">E</text>
  <line id="mol7:Bond:0" class="event" x1="66.86" y1="100" x2="66.86" y2="124" stroke-width="8" opacity="0" />
  <line id="mol7:Bond:2" class="event" x1="87.65" y1="136" x2="108.43" y2="124" stroke-width="8" opacity="0" />
  <line id="mol7:Bond:4" class="event" x1="108.43" y1="100" x2="87.65" y2="88" stroke-width="8" opacity="0" />
  <line id="mol7:Bond:7" class="event" x1="129.22" y1="88" x2="150" y2="100" stroke-width="8" opacity="0" />
  <line id="mol7:Bond:10" class="event" x1="170.78" y1="88" x2="170.78" y2="64" stroke-width="8" opacity="0" />
  <line id="mol7:Bond:1" class="event" x1="66.86" y1="124" x2="87.65" y2="136" stroke-width="8" opacity="0" />
  <line id="mol7:Bond:3" class="event" x1="108.43" y1="124" x2="108.43" y2="100" stroke-width="8" opacity="0" />
  <line id="mol7:Bond:5" class="event" x1="87.65" y1="88" x2="66.86" y2="100" stroke-width="8" opacity="0" />
  <line id="mol7:Bond:6" class="event" x1="108.43" y1="100" x2="129.22" y2="88" stroke-width="8" opacity="0" />
  <line id="mol7:Bond:8" class="event" x1="150" y1="100" x2="170.78" y2="88" stroke-width="8" opacity="0" />
  <line id="mol7:Bond:9" class="event" x1="170.78" y1="88" x2="191.57" y2="100" stroke-width="8" opacity="0" />
  <line id="mol7:Bond:11" class="event" x1="191.57" y1="100" x2="212.35" y2="88" stroke-width="8" opacity="0" />
  <line id="mol7:Bond:12" class="event" x1="212.35" y1="88" x2="233.14" y2="100" stroke-width="8" opacity="0" />
  <circle id="mol7:Atom:0" class="event" cx="66.86" cy="100" r="8" opacity="0" />
  <circle id="mol7:Atom:1" class="event" cx="66.86" cy="124" r="8" opacity="0" />
  <circle id="mol7:Atom:2" class="event" cx="87.65" cy="136" r="8" opacity="0" />
  <circle id="mol7:Atom:3" class="event" cx="108.43" cy="124" r="8" opacity="0" />
  <circle id="mol7:Atom:4" class="event" cx="108.43" cy="100" r="8" opacity="0" />
  <circle id="mol7:Atom:5" class="event" cx="87.65" cy="88" r="8" opacity="0" />
  <circle id="mol7:Atom:6" class="event" cx="129.22" cy="88" r="8" opacity="0" />
  <circle id="mol7:Atom:7" class="event" cx="150" cy="100" r="8" opacity="0" />
  <circle id="mol7:Atom:8" class="event" cx="170.78" cy="88" r="8" opacity="0" />
  <circle id="mol7:Atom:9" class="event" cx="191.57" cy="100" r="8" opacity="0" />
  <circle id="mol7:Atom:10" class="event" cx="170.78" cy="64" r="8" opacity="0" />
  <circle id="mol7:Atom:11" class="event" cx="212.35" cy="88" r="8" opacity="0" />
  <circle id="mol7:Atom:12" class="event" cx="233.14" cy="100" r="8" opacity="0" />
</svg>