<svg id="mol8" xmlns="http://www.w3.org/2000/svg" version="1.1" width="146px" height="82px" viewBox="80 56 146 82">
  <style> text {font-family: sans-serif;} #mol8 { pointer-events:none; } #mol8 .event  { pointer-events:all; } line { stroke-linecap:round; } polygon { stroke-linejoin:round; } </style>
  <text x="206.91" y="110.67" stroke="none" font-size="14" fill="rgb(255,13,13)">O</text>
  <text x="102.98" y="74.67" stroke="none" font-size="14" fill="rgb(255,13,13)">O</text>
  <line x1="170.78" y1="82" x2="150" y2="70" stroke="rgb(0,0,0)" stroke-width="1.44" />
  <line x1="166.77" y1="83.84" x2="150.42" y2="74.4" stroke="rgb(0,0,0)" stroke-width="1.44" />
  <line x1="129.22" y1="82" x2="129.22" y2="106" stroke="rgb(0,0,0)" stroke-width="1.44" />
  <line x1="132.82" y1="84.56" x2="132.82" y2="103.44" stroke="rgb(0,0,0)" stroke-width="1.44" />
  <line x1="150" y1="118" x2="170.78" y2="106" stroke="rgb(0,0,0)" stroke-width="1.44" />
  <line x1="150.42" y1="113.6" x2="166.77" y2="104.16" stroke="rgb(0,0,0)" stroke-width="1.44" />
  <line x1="192.47" y1="119.56" x2="206.81" y2="111.28" stroke="rgb(0,0,0)" stroke-width="1.44" />
  <line x1="192.89" y1="115.16" x2="205.01" y2="108.16" stroke="rgb(0,0,0)" stroke-width="1.44" />
  <line x1="150" y1="70" x2="129.22" y2="82" stroke="rgb(0,0,0)" stroke-width="1.44" />
  <line x1="129.22" y1="106" x2="150" y2="118" stroke="rgb(0,0,0)" stroke-width="1.44" />
  <line x1="170.78" y1="106" x2="170.78" y2="82" stroke="rgb(0,0,0)" stroke-width="1.44" />
  <line x1="170.78" y1="106" x2="192.47" y2="119.56" stroke="rgb(0,0,0)" stroke-width="1.44" />
  <line x1="129.22" y1="82" x2="114.88" y2="73.72" stroke="rgb(0,0,0)" stroke-width="1.44" />
  <line x1="101.98" y1="73.72" x2="87.65" y2="82" stroke="rgb(0,0,0)" stroke-width="1.44" />
  <line x1="87.65" y1="82" x2="87.65" y2="106" stroke="rgb(0,0,0)" stroke-width="1.44" />
  <line x1="87.65" y1="106" x2="87.65" y2="130" stroke="rgb(0,0,0)" stroke-width="1.44" />
  <line x1="84.05" y1="106" x2="84.05" y2="130" stroke="rgb(0,0,0)" stroke-width="1.44" />
  <line x1="91.25" y1="106" x2="91.25" y2="130" stroke="rgb(0,0,0)" stroke-width="1.44" />
  <line id="mol8:Bond:0" class="event" x1="170.78" y1="82" x2="150" y2="70" stroke-width="8" opacity="0" />
  <line id="mol8:Bond:2" class="event" x1="129.22" y1="82" x2="129.22" y2="106" stroke-width="8" opacity="0" />
  <line id="mol8:Bond:4" class="event" x1="150" y1="118" x2="170.78" y2="106" stroke-width="8" opacity="0" />
  <line id="mol8:Bond:7" class="event" x1="191.57" y1="118" x2="212.35" y2="106" stroke-width="8" opacity="0" />
  <line id="mol8:Bond:1" class="event" x1="150" y1="70" x2="129.22" y2="82" stroke-width="8" opacity="0" />
  <line id="mol8:Bond:3" class="event" x1="129.22" y1="106" x2="150" y2="118" stroke-width="8" opacity="0" />
  <line id="mol8:Bond:5" class="event" x1="170.78" y1="106" x2="170.78" y2="82" stroke-width="8" opacity="0" />
  <line id="mol8:Bond:6" class="event" x1="170.78" y1="106" x2="191.57" y2="118" stroke-width="8" opacity="0" />
  <line id="mol8:Bond:8" class="event" x1="129.22" y1="82" x2="108.43" y2="70" stroke-width="8" opacity="0" />
  <line id="mol8:Bond:9" class="event" x1="108.43" y1="70" x2="87.65" y2="82" stroke-width="8" opacity="0" />
  <line id="mol8:Bond:10" class="event" x1="87.65" y1="82" x2="87.65" y2="106" stroke-width="8" opacity="0" />
  <line id="mol8:Bond:11" class="event" x1="87.65" y1="106" x2="87.65" y2="130" stroke-width="8" opacity="0" />
  <circle id="mol8:Atom:0" class="event" cx="170.78" cy="82" r="8" opacity="0" />
  <circle id="mol8:Atom:1" class="event" cx="150" cy="70" r="8" opacity="0" />
  <circle id="mol8:Atom:2" class="event" cx="129.22" cy="82" r="8" opacity="0" />
  <circle id="mol8:Atom:3" class="event" cx="129.22" cy="106" r="8" opacity="0" />
  <circle id="mol8:Atom:4" class="event" cx="150" cy="118" r="8" opacity="0" />
  <circle id="mol8:Atom:5" class="event" cx="170.78" cy="106" r="8" opacity="0" />
  <circle id="mol8:Atom:6" class="event" cx="191.57" cy="118" r="8" opacity="0" />
  <circle id="mol8:Atom:7" class="event" cx="212.35" cy="106" r="8" opacity="0" />
  <circle id="mol8:Atom:8" class="event" cx="108.43" cy="70" r="8" opacity="0" />
  <circle id="mol8:Atom:9" class="event" cx="87.65" cy="82" r="8" opacity="0" />
  <circle id="mol8:Atom:10" class="event" cx="87.65" cy="106" r="8" opacity="0" />
  <circle id="mol8:Atom:11" class="event" cx="87.65" cy="130" r="8" opacity="0" />
</svg>